<?xml version="1.0" encoding="utf-8"?>
<svg xmlns="http://www.w3.org/2000/svg" xmlns:xlink="http://www.w3.org/1999/xlink" style="margin: auto; background: rgba(0, 0, 0, 0) none repeat scroll 0% 0%; display: block; shape-rendering: auto;" width="144px" height="144px" viewBox="0 0 100 100" preserveAspectRatio="xMidYMid">
<g transform="rotate(0 50 50)">
  <rect x="47.5" y="32.5" rx="2.5" ry="2.5" width="5" height="5" fill="#000000">
    <animate attributeName="opacity" values="1;0" keyTimes="0;1" dur="0.4854368932038836s" begin="-0.4368932038834953s" repeatCount="indefinite"></animate>
  </rect>
</g><g transform="rotate(36 50 50)">
  <rect x="47.5" y="32.5" rx="2.5" ry="2.5" width="5" height="5" fill="#000000">
    <animate attributeName="opacity" values="1;0" keyTimes="0;1" dur="0.4854368932038836s" begin="-0.3883495145631069s" repeatCount="indefinite"></animate>
  </rect>
</g><g transform="rotate(72 50 50)">
  <rect x="47.5" y="32.5" rx="2.5" ry="2.5" width="5" height="5" fill="#000000">
    <animate attributeName="opacity" values="1;0" keyTimes="0;1" dur="0.4854368932038836s" begin="-0.3398058252427185s" repeatCount="indefinite"></animate>
  </rect>
</g><g transform="rotate(108 50 50)">
  <rect x="47.5" y="32.5" rx="2.5" ry="2.5" width="5" height="5" fill="#000000">
    <animate attributeName="opacity" values="1;0" keyTimes="0;1" dur="0.4854368932038836s" begin="-0.2912621359223302s" repeatCount="indefinite"></animate>
  </rect>
</g><g transform="rotate(144 50 50)">
  <rect x="47.5" y="32.5" rx="2.5" ry="2.5" width="5" height="5" fill="#000000">
    <animate attributeName="opacity" values="1;0" keyTimes="0;1" dur="0.4854368932038836s" begin="-0.2427184466019418s" repeatCount="indefinite"></animate>
  </rect>
</g><g transform="rotate(180 50 50)">
  <rect x="47.5" y="32.5" rx="2.5" ry="2.5" width="5" height="5" fill="#000000">
    <animate attributeName="opacity" values="1;0" keyTimes="0;1" dur="0.4854368932038836s" begin="-0.19417475728155345s" repeatCount="indefinite"></animate>
  </rect>
</g><g transform="rotate(216 50 50)">
  <rect x="47.5" y="32.5" rx="2.5" ry="2.5" width="5" height="5" fill="#000000">
    <animate attributeName="opacity" values="1;0" keyTimes="0;1" dur="0.4854368932038836s" begin="-0.1456310679611651s" repeatCount="indefinite"></animate>
  </rect>
</g><g transform="rotate(252 50 50)">
  <rect x="47.5" y="32.5" rx="2.5" ry="2.5" width="5" height="5" fill="#000000">
    <animate attributeName="opacity" values="1;0" keyTimes="0;1" dur="0.4854368932038836s" begin="-0.09708737864077673s" repeatCount="indefinite"></animate>
  </rect>
</g><g transform="rotate(288 50 50)">
  <rect x="47.5" y="32.5" rx="2.5" ry="2.5" width="5" height="5" fill="#000000">
    <animate attributeName="opacity" values="1;0" keyTimes="0;1" dur="0.4854368932038836s" begin="-0.04854368932038836s" repeatCount="indefinite"></animate>
  </rect>
</g><g transform="rotate(324 50 50)">
  <rect x="47.5" y="32.5" rx="2.5" ry="2.5" width="5" height="5" fill="#000000">
    <animate attributeName="opacity" values="1;0" keyTimes="0;1" dur="0.4854368932038836s" begin="0s" repeatCount="indefinite"></animate>
  </rect>
</g>
<!-- [ldio] generated by https://loading.io/ --></svg>